<svg width="26" height="26" viewBox="0 0 26 26" fill="none" xmlns="http://www.w3.org/2000/svg">
<path d="M8.53125 24.375C8.85172 24.3763 9.16929 24.3142 9.46563 24.1922C9.76197 24.0702 10.0312 23.8907 10.2578 23.6641C10.4844 23.4375 10.6639 23.1682 10.7859 22.8719C10.908 22.5755 10.9701 22.258 10.9688 21.9375V17.0625" stroke="currentColor" stroke-width="1.5" stroke-linecap="round" stroke-linejoin="round"/>
<path d="M17.4688 24.375C17.1483 24.3763 16.8307 24.3142 16.5344 24.1922C16.2381 24.0702 15.9688 23.8907 15.7422 23.6641C15.5156 23.4375 15.3361 23.1682 15.2141 22.8719C15.0921 22.5755 15.0299 22.258 15.0313 21.9375V17.0625" stroke="currentColor" stroke-width="1.5" stroke-linecap="round" stroke-linejoin="round"/>
<path d="M15.4375 17.0625H17.0625C17.383 17.0612 17.7005 17.1233 17.9969 17.2453C18.2932 17.3673 18.5625 17.5468 18.7891 17.7735C19.0157 18.0001 19.1952 18.2693 19.3172 18.5656C19.4392 18.862 19.5013 19.1795 19.5 19.5V20.3125C19.4987 20.633 19.5608 20.9506 19.6828 21.2469C19.8048 21.5432 19.9843 21.8125 20.2109 22.0391C20.4375 22.2657 20.7068 22.4452 21.0031 22.5672C21.2995 22.6892 21.617 22.7514 21.9375 22.75" stroke="currentColor" stroke-width="1.5" stroke-linecap="round" stroke-linejoin="round"/>
<path d="M10.5625 17.0625H8.9375C8.61703 17.0612 8.29946 17.1233 8.00312 17.2453C7.70678 17.3673 7.43754 17.5468 7.21093 17.7735C6.98432 18.0001 6.80483 18.2693 6.68281 18.5656C6.56079 18.862 6.49866 19.1795 6.5 19.5V20.3125C6.50134 20.633 6.43921 20.9506 6.31719 21.2469C6.19517 21.5432 6.01568 21.8125 5.78907 22.0391C5.56246 22.2657 5.29322 22.4452 4.99688 22.5672C4.70054 22.6892 4.38297 22.7514 4.0625 22.75" stroke="currentColor" stroke-width="1.5" stroke-linecap="round" stroke-linejoin="round"/>
<path d="M11.3547 6.5C10.8774 5.75302 10.2197 5.1382 9.44226 4.71222C8.66485 4.28624 7.79272 4.0628 6.90625 4.0625C6.51209 4.74477 6.27558 5.5066 6.21408 6.29214C6.15257 7.07768 6.26761 7.86704 6.55078 8.60234C5.99544 9.42099 5.69505 10.3858 5.6875 11.375V12.1875C5.6875 13.4804 6.20111 14.7204 7.11535 15.6346C8.02959 16.5489 9.26957 17.0625 10.5625 17.0625H15.4375C16.7304 17.0625 17.9704 16.5489 18.8846 15.6346C19.7989 14.7204 20.3125 13.4804 20.3125 12.1875V11.375C20.305 10.3858 20.0046 9.42099 19.4492 8.60234C19.7324 7.86704 19.8474 7.07768 19.7859 6.29214C19.7244 5.5066 19.4879 4.74477 19.0938 4.0625C18.2073 4.0628 17.3351 4.28624 16.5577 4.71222C15.7803 5.1382 15.1226 5.75302 14.6453 6.5H11.3547Z" stroke="currentColor" stroke-width="1.5" stroke-linecap="round" stroke-linejoin="round"/>
</svg>
