<svg width="26" height="23" viewBox="0 0 26 23" fill="none" xmlns="http://www.w3.org/2000/svg">
<path d="M5.683 1.90798C8.56449 4.07123 11.6639 8.45738 12.8018 10.8113C13.9398 8.45756 17.039 4.07118 19.9206 1.90798C21.9997 0.347073 25.3685 -0.86067 25.3685 2.98243C25.3685 3.74995 24.9284 9.43 24.6703 10.3521C23.7732 13.5581 20.5041 14.3758 17.5962 13.8809C22.6792 14.746 23.9722 17.6116 21.1797 20.4771C15.8761 25.9193 13.5569 19.1116 12.9624 17.3672C12.8535 17.0475 12.8025 16.8978 12.8017 17.0251C12.801 16.8978 12.75 17.0474 12.6411 17.3672C12.0468 19.1116 9.72763 25.9195 4.42376 20.4771C1.63119 17.6116 2.92421 14.7458 8.0073 13.8809C5.09928 14.3758 1.83013 13.5581 0.933129 10.3521C0.675027 9.42991 0.234985 3.74987 0.234985 2.98243C0.234985 -0.86067 3.60381 0.347073 5.68285 1.90798H5.683Z" fill="currentColor"/>
</svg>
