<svg width="26" height="26" viewBox="0 0 26 26" fill="none" xmlns="http://www.w3.org/2000/svg">
<path d="M16.25 13L11.375 9.75V16.25L16.25 13Z" stroke="currentColor" stroke-width="1.5" stroke-linecap="round" stroke-linejoin="round"/>
<path d="M2.4375 13C2.4375 16.0266 2.75234 17.7938 2.98594 18.7078C3.05035 18.9559 3.17214 19.1853 3.3415 19.3776C3.51086 19.5698 3.72305 19.7196 3.96094 19.8149C7.36328 21.1149 13 21.0844 13 21.0844C13 21.0844 18.6367 21.1149 22.0391 19.8149C22.277 19.7196 22.4891 19.5698 22.6585 19.3776C22.8279 19.1853 22.9497 18.9559 23.0141 18.7078C23.2477 17.7938 23.5625 16.0266 23.5625 13C23.5625 9.97346 23.2477 8.20627 23.0141 7.29221C22.9497 7.0442 22.8279 6.81479 22.6585 6.6225C22.4891 6.4302 22.277 6.2804 22.0391 6.18518C18.6367 4.88518 13 4.91565 13 4.91565C13 4.91565 7.36328 4.88518 3.96094 6.18518C3.72305 6.2804 3.51086 6.4302 3.3415 6.6225C3.17214 6.81479 3.05035 7.0442 2.98594 7.29221C2.75234 8.20627 2.4375 9.97346 2.4375 13Z" stroke="currentColor" stroke-width="1.5" stroke-linecap="round" stroke-linejoin="round"/>
</svg>
